<svg width="160" height="100" viewBox="0 0 160 100" fill="none" xmlns="http://www.w3.org/2000/svg">
  <rect width="160" height="100" rx="10" fill="#F5F5F5" fill-opacity="0.1"/>
  <path d="M32 22H128C133.523 22 138 26.4772 138 32V68C138 73.5228 133.523 78 128 78H32C26.4772 78 22 73.5228 22 68V32C22 26.4772 26.4772 22 32 22Z" fill="#F5F5F5" fill-opacity="0.3"/>
  <path fill-rule="evenodd" clip-rule="evenodd" d="M55.2 50C55.2 39.4016 63.8016 30.8 74.4 30.8C84.9984 30.8 93.6 39.4016 93.6 50C93.6 60.5984 84.9984 69.2 74.4 69.2C63.8016 69.2 55.2 60.5984 55.2 50ZM74.4 35.2C66.2327 35.2 59.6 41.8327 59.6 50C59.6 58.1673 66.2327 64.8 74.4 64.8C82.5673 64.8 89.2 58.1673 89.2 50C89.2 41.8327 82.5673 35.2 74.4 35.2Z" fill="#004D98"/>
  <path fill-rule="evenodd" clip-rule="evenodd" d="M74.4 35.2C66.2327 35.2 59.6 41.8327 59.6 50C59.6 58.1673 66.2327 64.8 74.4 64.8C82.5673 64.8 89.2 58.1673 89.2 50C89.2 41.8327 82.5673 35.2 74.4 35.2ZM63.24 50C63.24 43.8385 68.2385 38.84 74.4 38.84C80.5615 38.84 85.56 43.8385 85.56 50C85.56 56.1615 80.5615 61.16 74.4 61.16C68.2385 61.16 63.24 56.1615 63.24 50Z" fill="#D2313B"/>
  <path d="M74.4 45.6L75.8392 50.0608H80.52L76.7608 52.8816L78.2 57.3424L74.4 54.52L70.6 57.3424L72.0392 52.8816L68.28 50.0608H72.9608L74.4 45.6Z" fill="#004D98"/>
  <path d="M113.24 35.4H113.48L116.6 42.92H110.12L113.24 35.4ZM106.2 46H120.6L118.36 50H108.4L106.2 46Z" fill="#D2313B"/>
  <path d="M41.8 42.6C41.8 40.1855 43.7855 38.2 46.2 38.2C48.6145 38.2 50.6 40.1855 50.6 42.6C50.6 45.0145 48.6145 47 46.2 47C43.7855 47 41.8 45.0145 41.8 42.6Z" fill="#D2313B"/>
  <path d="M43.4 57.4C43.4 55.4118 45.0118 53.8 47 53.8H47.8C49.7882 53.8 51.4 55.4118 51.4 57.4C51.4 59.3882 49.7882 61 47.8 61H47C45.0118 61 43.4 59.3882 43.4 57.4Z" fill="#004D98"/>
</svg>